<?xml version="1.0" standalone="no"?><!DOCTYPE svg PUBLIC "-//W3C//DTD SVG 1.1//EN" "http://www.w3.org/Graphics/SVG/1.1/DTD/svg11.dtd"><svg t="1631276690130" class="icon" viewBox="0 0 1024 1024" version="1.1" xmlns="http://www.w3.org/2000/svg" p-id="6700" xmlns:xlink="http://www.w3.org/1999/xlink" width="200" height="200"><defs><style type="text/css"></style></defs><path d="M1004 931.2H20c-8.8 0-16-7.2-16-16V534.4c0-8.8 7.2-16 16-16s16 7.2 16 16v364.8h952V534.4c0-8.8 7.2-16 16-16s16 7.2 16 16v380.8c0 8.8-7.2 16-16 16z" p-id="6701"></path><path d="M1004 550.4c-8.8 0-16-7.2-16-16 0-96.8-46.4-192-133.6-276l-156 55.2c-8 3.2-17.6-1.6-20-9.6-3.2-8 1.6-17.6 9.6-20l165.6-58.4c5.6-1.6 12-0.8 16 3.2C968 320 1020 425.6 1020 534.4c0 8.8-7.2 16-16 16zM20 550.4c-6.4 0-12.8-4-15.2-10.4-3.2-8 1.6-17.6 9.6-20l492.8-172.8c8-3.2 17.6 1.6 20 9.6 3.2 8-1.6 17.6-9.6 20L25.6 549.6c-2.4 0.8-4 0.8-5.6 0.8zM592 295.2c-8.8 0-15.2-6.4-16-15.2-3.2-75.2-100-158.4-101.6-159.2-6.4-5.6-8-16-1.6-22.4 5.6-6.4 16-8 22.4-1.6 4.8 4 108.8 92.8 112.8 181.6 0.8 8.8-6.4 16-16 16.8 0.8 0 0 0 0 0z" p-id="6702"></path><path d="M603.2 443.2c-61.6 0-111.2-49.6-111.2-111.2s49.6-111.2 111.2-111.2 111.2 49.6 111.2 111.2-49.6 111.2-111.2 111.2z m0-190.4c-44 0-79.2 35.2-79.2 79.2s35.2 79.2 79.2 79.2 79.2-35.2 79.2-79.2c0-43.2-35.2-79.2-79.2-79.2zM1004 752.8H20c-4.8 0-8-3.2-8-8s3.2-8 8-8h984c4.8 0 8 3.2 8 8s-3.2 8-8 8zM1004 548H25.6c-4.8 0-8-3.2-8-8s3.2-8 8-8h978.4c4.8 0 8 3.2 8 8s-3.2 8-8 8z" p-id="6703"></path></svg>